<svg width="1920" height="1024" viewBox="0 0 1920 1024" fill="none" xmlns="http://www.w3.org/2000/svg">
<path d="M-229.072 1225.65C-435.058 881.84 -322.969 434.543 20.7848 228.592L1152.56 -449.484C1496.32 -655.435 1943.59 -543.269 2149.58 -199.456C2355.57 144.356 2243.48 591.653 1899.72 797.604L767.945 1475.68C424.192 1681.63 -23.0857 1569.46 -229.072 1225.65ZM2092.03 -164.978C1905.01 -477.133 1499.15 -578.914 1187.05 -391.926L55.2691 286.15C-256.833 473.138 -358.544 879.018 -171.524 1191.17C15.4961 1503.33 421.359 1605.11 733.461 1418.12L1865.24 740.046C2177.34 553.058 2279.05 147.178 2092.03 -164.978Z" fill="#DBFF81"/>
<path d="M-19.2809 1151.59L-64.6852 1075.8C-210.554 832.331 -131.138 515.419 112.29 369.576L1233.71 -302.294C1477.14 -448.138 1794.04 -368.668 1939.9 -125.198L1985.31 -49.4133C2131.29 194.248 2051.76 510.968 1808.33 656.812L687.106 1328.57C443.486 1474.53 126.78 1394.94 -19.089 1151.47L-19.2809 1151.59ZM1882.24 -90.9113C1755.34 -302.724 1479.86 -371.809 1268.08 -244.928L146.852 426.827C-64.9253 553.707 -133.963 829.203 -7.0602 1041.02L38.3442 1116.8C165.246 1328.61 440.73 1397.7 652.507 1270.82L1773.73 599.062C1985.51 472.182 2054.55 196.686 1927.65 -15.1268L1882.24 -90.9113Z" fill="#DBFF81"/>
<path d="M151.198 1011.9L138.898 991.374C26.9392 804.503 87.9042 561.22 274.743 449.28L1227.36 -121.453C1414.19 -233.393 1657.47 -172.386 1769.43 14.4851L1781.73 35.0142C1893.68 221.885 1832.72 465.168 1645.88 577.108L693.268 1147.84C506.429 1259.78 263.157 1198.77 151.198 1011.9ZM1711.88 48.9636C1618.89 -106.251 1417.03 -156.872 1261.84 -63.895L309.228 506.838C154.04 599.815 103.454 801.681 196.446 956.896L208.746 977.425C301.738 1132.64 503.596 1183.26 658.784 1090.28L1611.4 519.55C1766.58 426.573 1817.17 224.707 1724.18 69.4926L1711.88 48.9636Z" fill="#DBFF81"/>
<path d="M332.789 889.028C262.096 771.034 300.536 617.64 418.509 546.96L1245.67 51.3897C1363.64 -19.2911 1517.03 19.1747 1587.72 137.168C1658.41 255.162 1619.97 408.556 1502 479.237L674.843 974.807C556.869 1045.49 403.482 1007.02 332.789 889.028ZM1531.9 170.612C1479.6 83.3163 1366.21 55.0435 1279.12 107.221L451.959 602.791C364.678 655.083 336.424 768.48 388.611 855.584C440.797 942.688 554.304 971.153 641.393 918.975L1468.55 423.405C1555.83 371.113 1584.08 257.717 1531.9 170.612Z" fill="#DBFF81"/>
</svg>
