<svg width="4000" height="4000" viewBox="0 0 3126 2673" fill="none" xmlns="http://www.w3.org/2000/svg">
<path d="M373.58 2048.65C167.594 1704.84 279.684 1257.54 623.437 1051.59L1755.22 373.516C2098.97 167.565 2546.25 279.731 2752.23 623.544C2958.22 967.356 2846.13 1414.65 2502.38 1620.6L1370.6 2298.68C1026.84 2504.63 579.567 2392.46 373.58 2048.65ZM2694.68 658.022C2507.66 345.867 2101.8 244.086 1789.7 431.074L657.921 1109.15C345.819 1296.14 244.108 1702.02 431.128 2014.17C618.148 2326.33 1024.01 2428.11 1336.11 2241.12L2467.89 1563.05C2779.99 1376.06 2881.7 970.178 2694.68 658.022Z" fill="#DBFF81"/>
<path d="M583.371 1974.59L537.967 1898.8C392.098 1655.33 471.515 1338.42 714.943 1192.58L1836.36 520.706C2079.79 374.862 2396.69 454.333 2542.56 697.802L2587.96 773.587C2733.94 1017.25 2654.41 1333.97 2410.99 1479.81L1289.76 2151.57C1046.14 2297.53 729.432 2217.94 583.563 1974.47L583.371 1974.59ZM2484.89 732.089C2357.99 520.276 2082.51 451.191 1870.73 578.072L749.504 1249.83C537.727 1376.71 468.69 1652.2 595.592 1864.02L640.997 1939.8C767.899 2151.61 1043.38 2220.7 1255.16 2093.82L2376.39 1422.06C2588.16 1295.18 2657.2 1019.69 2530.3 807.873L2484.89 732.089Z" fill="#DBFF81"/>
<path d="M753.85 1834.9L741.551 1814.37C629.592 1627.5 690.557 1384.22 877.396 1272.28L1830.01 701.547C2016.85 589.607 2260.12 650.614 2372.08 837.485L2384.38 858.014C2496.34 1044.89 2435.37 1288.17 2248.53 1400.11L1295.92 1970.84C1109.08 2082.78 865.81 2021.77 753.85 1834.9ZM2314.53 871.964C2221.54 716.749 2019.68 666.128 1864.49 759.105L911.88 1329.84C756.693 1422.81 706.106 1624.68 799.099 1779.9L811.398 1800.42C904.391 1955.64 1106.25 2006.26 1261.44 1913.28L2214.05 1342.55C2369.24 1249.57 2419.82 1047.71 2326.83 892.493L2314.53 871.964Z" fill="#DBFF81"/>
<path d="M935.441 1712.03C864.748 1594.03 903.188 1440.64 1021.16 1369.96L1848.32 874.39C1966.29 803.709 2119.68 842.175 2190.37 960.169C2261.06 1078.16 2222.63 1231.56 2104.65 1302.24L1277.49 1797.81C1159.52 1868.49 1006.13 1830.02 935.441 1712.03ZM2134.55 993.613C2082.25 906.317 1968.86 878.044 1881.77 930.221L1054.61 1425.79C967.33 1478.08 939.076 1591.48 991.262 1678.58C1043.45 1765.69 1156.96 1794.15 1244.04 1741.98L2071.2 1246.41C2158.48 1194.11 2186.74 1080.72 2134.55 993.613Z" fill="#DBFF81"/>
</svg>
