<svg width="198" height="71" viewBox="0 0 198 71" fill="none" xmlns="http://www.w3.org/2000/svg">
<g clip-path="url(#clip0_138_2573)">
<path d="M65.24 67.1752C65.24 66.2952 65.52 65.1952 66.07 63.8452L70.61 53.1252C71.16 51.8052 71.72 50.7252 72.27 49.8752C72.82 49.0352 73.45 48.3652 74.14 47.8752C74.83 47.3852 75.64 47.0452 76.57 46.8552C77.5 46.6652 78.62 46.5652 79.95 46.5652H94.19C94.51 46.5652 94.67 46.6652 94.67 46.8552C94.67 46.9452 94.64 47.0652 94.57 47.2352L92.3 52.5752C92.13 53.0252 91.81 53.2452 91.34 53.2452H79.47C78.89 53.2452 78.47 53.5852 78.19 54.2652L74.61 62.6852C74.5 62.9452 74.45 63.1352 74.45 63.2652C74.45 63.5652 74.65 63.7152 75.06 63.7152H86.9C87.33 63.7152 87.45 63.9352 87.28 64.3852L84.98 69.7952C84.81 70.2452 84.49 70.4652 84.02 70.4652H70.04C66.84 70.4652 65.24 69.3652 65.24 67.1652V67.1752Z" fill="#DFDFDF"/>
<path d="M87.1599 69.7952L96.7299 47.2352C96.9399 46.7852 97.2599 46.5652 97.6899 46.5652H104.35C104.67 46.5652 104.83 46.6652 104.83 46.8552C104.83 46.9452 104.8 47.0652 104.73 47.2352L95.1599 69.7952C94.9899 70.2452 94.6699 70.4652 94.1999 70.4652H87.5399C87.1099 70.4652 86.9799 70.2452 87.1599 69.7952Z" fill="#DFDFDF"/>
<path d="M97.69 69.7952L107.26 47.2352C107.47 46.7852 107.79 46.5652 108.22 46.5652H124.41C127.33 46.5652 128.79 47.4152 128.79 49.1252C128.79 49.8252 128.59 50.6252 128.18 51.5252L125.52 57.8252C125.01 59.0452 124.32 60.0052 123.46 60.7252C122.6 61.4352 121.51 61.9352 120.21 62.2152L120.5 69.8652C120.5 70.2752 120.29 70.4752 119.86 70.4752H113.72C113.25 70.4752 113.02 70.2752 113.02 69.8652L112.86 62.4752H108.73L105.63 69.8052C105.46 70.2552 105.14 70.4752 104.67 70.4752H98.08C97.65 70.4752 97.53 70.2552 97.7 69.8052L97.69 69.7952ZM117.24 56.6452C117.84 56.6452 118.27 56.3152 118.55 55.6552L119.13 54.2752C119.24 54.0152 119.29 53.8252 119.29 53.6952C119.29 53.3952 119.09 53.2452 118.68 53.2452H112.63L111.19 56.6352H117.24V56.6452Z" fill="#DFDFDF"/>
<path d="M124.31 67.1752C124.31 66.2952 124.59 65.1952 125.14 63.8452L129.68 53.1252C130.23 51.8052 130.79 50.7252 131.34 49.8752C131.89 49.0352 132.52 48.3652 133.21 47.8752C133.9 47.3852 134.71 47.0452 135.64 46.8552C136.57 46.6652 137.69 46.5652 139.02 46.5652H153.26C153.58 46.5652 153.74 46.6652 153.74 46.8552C153.74 46.9452 153.71 47.0652 153.64 47.2352L151.37 52.5752C151.2 53.0252 150.88 53.2452 150.41 53.2452H138.54C137.96 53.2452 137.54 53.5852 137.26 54.2652L133.68 62.6852C133.57 62.9452 133.52 63.1352 133.52 63.2652C133.52 63.5652 133.72 63.7152 134.13 63.7152H145.97C146.4 63.7152 146.52 63.9352 146.35 64.3852L144.05 69.7952C143.88 70.2452 143.56 70.4652 143.09 70.4652H129.11C125.91 70.4652 124.31 69.3652 124.31 67.1652V67.1752Z" fill="#DFDFDF"/>
<path d="M146.2 69.7952L155.77 47.2352C155.98 46.7852 156.3 46.5652 156.73 46.5652H163.83C164.26 46.5652 164.38 46.7852 164.21 47.2352L157.23 63.7152H167.92C168.35 63.7152 168.47 63.9352 168.3 64.3852L166 69.7952C165.83 70.2452 165.51 70.4652 165.04 70.4652H146.58C146.15 70.4652 146.03 70.2452 146.2 69.7952Z" fill="#DFDFDF"/>
<path d="M167.93 69.7952L177.5 47.2352C177.71 46.7852 178.03 46.5652 178.46 46.5652H197.12C197.44 46.5652 197.6 46.6652 197.6 46.8552C197.6 46.9452 197.57 47.0652 197.5 47.2352L195.23 52.5752C195.06 53.0252 194.74 53.2452 194.27 53.2452H182.97L181.98 55.5852H192.32C192.64 55.5852 192.8 55.6852 192.8 55.8752C192.8 55.9552 192.77 56.0852 192.7 56.2552L190.81 60.7052C190.64 61.1552 190.33 61.3752 189.88 61.3752H179.54L178.55 63.7152H190.07C190.5 63.7152 190.62 63.9352 190.45 64.3852L188.15 69.7952C187.98 70.2452 187.66 70.4652 187.19 70.4652H168.31C167.88 70.4652 167.76 70.2452 167.93 69.7952Z" fill="#DFDFDF"/>
<path d="M0.500044 29.8952L12.59 1.38516C12.86 0.815156 13.26 0.535156 13.8 0.535156H34.27C37.96 0.535156 39.81 1.61516 39.81 3.77516C39.81 4.66516 39.55 5.67516 39.04 6.80516L35.68 14.7752C35.03 16.3152 34.16 17.5352 33.07 18.4352C31.98 19.3352 30.61 19.9652 28.96 20.3152L29.32 29.9852C29.32 30.4952 29.05 30.7552 28.51 30.7552H20.74C20.15 30.7552 19.85 30.4952 19.85 29.9852L19.65 20.6452H14.43L10.51 29.9052C10.29 30.4752 9.89004 30.7552 9.30004 30.7552H0.980044C0.440044 30.7552 0.280044 30.4752 0.490044 29.9052L0.500044 29.8952ZM25.21 13.2752C25.97 13.2752 26.52 12.8552 26.87 12.0252L27.6 10.2852C27.73 9.96516 27.8 9.71516 27.8 9.55516C27.8 9.17516 27.54 8.98516 27.03 8.98516H19.39L17.57 13.2752H25.21Z" fill="#DFDFDF"/>
<path d="M33.6602 27.1452C33.6602 26.3352 33.8802 25.4152 34.3102 24.3952L44.0602 1.38516C44.3302 0.815156 44.7302 0.535156 45.2702 0.535156H53.6802C54.0802 0.535156 54.2902 0.655156 54.2902 0.895156C54.2902 1.00516 54.2502 1.16516 54.1702 1.37516L45.8802 20.9152C45.7502 21.2352 45.6802 21.4852 45.6802 21.6452C45.6802 22.0252 45.9402 22.2152 46.4502 22.2152H53.6502C54.3502 22.2152 54.8802 21.7852 55.2302 20.9252L63.5202 1.38516C63.7902 0.815156 64.1902 0.535156 64.7302 0.535156H73.1402C73.5402 0.535156 73.7502 0.655156 73.7502 0.895156C73.7502 1.00516 73.7102 1.16516 73.6302 1.37516L63.8802 24.3852C63.3402 25.6552 62.8002 26.6952 62.2402 27.5152C61.6902 28.3352 61.0502 28.9852 60.3202 29.4552C59.5902 29.9252 58.7402 30.2552 57.7502 30.4452C56.7602 30.6352 55.5602 30.7252 54.1302 30.7252H38.6802C37.1402 30.7252 35.9202 30.4252 35.0202 29.8352C34.1202 29.2452 33.6602 28.3352 33.6602 27.1252V27.1452Z" fill="#DFDFDF"/>
<path d="M64.44 29.8952L76.54 1.38516C76.81 0.815156 77.21 0.535156 77.75 0.535156H87.74C88.28 0.535156 88.6 0.775156 88.71 1.26516L90.89 12.3452C90.97 12.7252 90.98 13.3852 90.93 14.3252C91.09 13.7852 91.29 13.2352 91.52 12.6652C91.75 12.0952 92.01 11.4652 92.31 10.7652L96.27 1.38516C96.49 0.815156 96.89 0.535156 97.48 0.535156H105.89C106.29 0.535156 106.5 0.655156 106.5 0.895156C106.5 1.00516 106.46 1.16516 106.38 1.37516L94.29 29.8952C94.07 30.4652 93.67 30.7452 93.08 30.7452H85.64C85.07 30.7452 84.75 30.5052 84.67 30.0152L81.6 15.0052C81.55 14.8152 81.5 14.5552 81.48 14.2352C81.45 13.9152 81.47 13.5252 81.52 13.0652C81.36 13.6852 81.17 14.2652 80.95 14.8052C80.73 15.3452 80.49 15.9252 80.22 16.5452L74.56 29.8952C74.34 30.4652 73.94 30.7452 73.35 30.7452H64.94C64.4 30.7452 64.24 30.4652 64.45 29.8952H64.44Z" fill="#DFDFDF"/>
<path d="M97.2901 29.8952L109.38 1.38516C109.65 0.815156 110.05 0.535156 110.59 0.535156H120.58C121.12 0.535156 121.44 0.775156 121.55 1.26516L123.73 12.3452C123.81 12.7252 123.82 13.3852 123.77 14.3252C123.93 13.7852 124.13 13.2352 124.36 12.6652C124.59 12.0952 124.85 11.4652 125.15 10.7652L129.11 1.38516C129.33 0.815156 129.73 0.535156 130.32 0.535156H138.73C139.13 0.535156 139.34 0.655156 139.34 0.895156C139.34 1.00516 139.3 1.16516 139.22 1.37516L127.13 29.8952C126.91 30.4652 126.51 30.7452 125.92 30.7452H118.48C117.91 30.7452 117.59 30.5052 117.51 30.0152L114.44 15.0052C114.39 14.8152 114.35 14.5552 114.32 14.2352C114.29 13.9152 114.31 13.5252 114.36 13.0652C114.2 13.6852 114.01 14.2652 113.79 14.8052C113.57 15.3452 113.33 15.9252 113.06 16.5452L107.4 29.8952C107.18 30.4652 106.78 30.7452 106.19 30.7452H97.7801C97.2401 30.7452 97.0801 30.4652 97.3001 29.8952H97.2901Z" fill="#DFDFDF"/>
<path d="M130.13 29.8952L142.22 1.38516C142.49 0.815156 142.89 0.535156 143.43 0.535156H167.01C167.41 0.535156 167.62 0.655156 167.62 0.895156C167.62 1.00516 167.58 1.16516 167.5 1.37516L164.63 8.13516C164.41 8.70516 164.01 8.98516 163.42 8.98516H149.14L147.89 11.9352H160.96C161.36 11.9352 161.57 12.0552 161.57 12.2952C161.57 12.4052 161.53 12.5652 161.45 12.7852L159.06 18.4052C158.84 18.9752 158.45 19.2552 157.89 19.2552H144.83L143.58 22.2052H158.14C158.68 22.2052 158.84 22.4852 158.63 23.0552L155.72 29.8952C155.5 30.4652 155.1 30.7452 154.51 30.7452H130.65C130.11 30.7452 129.95 30.4652 130.16 29.8952H130.13Z" fill="#DFDFDF"/>
<path d="M158.69 29.8952L170.78 1.38516C171.05 0.815156 171.45 0.535156 171.99 0.535156H192.46C196.15 0.535156 198 1.61516 198 3.77516C198 4.66516 197.74 5.67516 197.23 6.80516L193.87 14.7752C193.22 16.3152 192.35 17.5352 191.26 18.4352C190.17 19.3352 188.8 19.9652 187.15 20.3152L187.51 29.9852C187.51 30.4952 187.24 30.7552 186.7 30.7552H178.93C178.34 30.7552 178.04 30.4952 178.04 29.9852L177.84 20.6452H172.62L168.7 29.9052C168.48 30.4752 168.08 30.7552 167.49 30.7552H159.16C158.62 30.7552 158.46 30.4752 158.67 29.9052L158.69 29.8952ZM183.4 13.2752C184.16 13.2752 184.71 12.8552 185.06 12.0252L185.79 10.2852C185.92 9.96516 185.99 9.71516 185.99 9.55516C185.99 9.17516 185.73 8.98516 185.22 8.98516H177.58L175.76 13.2752H183.4Z" fill="#DFDFDF"/>
<path d="M5.04 32.3351L5 32.0151H0L0.05 32.4351C2.67 53.7151 20.82 69.7651 42.27 69.7651H61.96L61.93 69.3651C61.86 68.2251 62 66.8351 62.35 65.2551L62.45 64.7951H42.26C23.57 64.7951 7.57 50.8451 5.03 32.3451L5.04 32.3351Z" fill="#DFDFDF"/>
<path d="M17.4299 32.3451L17.3999 32.0051H12.4099L12.4499 32.4151C13.8099 47.9151 27.0599 60.0551 42.6299 60.0551H63.9599L64.0499 59.8151C64.5499 58.4951 65.1399 57.0751 65.7999 55.6151L66.0399 55.0851H42.6299C29.5899 55.0851 18.7599 45.3051 17.4399 32.3351L17.4299 32.3451Z" fill="#699CFF"/>
<path d="M48.3101 46.3151C39.8301 46.3151 32.4901 40.5551 30.4501 32.2951L30.3801 32.0051H25.3201L25.4101 32.4551C27.5801 43.3651 37.2101 51.2751 48.3101 51.2751H67.8801L67.9801 51.0651C68.6901 49.6751 69.4401 48.2651 70.2101 46.8551L70.5201 46.2951H48.3101V46.3151Z" fill="#B6FF02"/>
</g>
<defs>
<clipPath id="clip0_138_2573">
<rect width="198" height="69.93" fill="white" transform="translate(0 0.535156)"/>
</clipPath>
</defs>
</svg>
